<?xml version="1.0" encoding="utf-8" standalone="no"?>
<!DOCTYPE svg PUBLIC "-//W3C//DTD SVG 1.1//EN"
  "http://www.w3.org/Graphics/SVG/1.1/DTD/svg11.dtd">
<!-- Created with matplotlib (http://matplotlib.org/) -->
<svg height="345.6pt" version="1.1" viewBox="0 0 460.8 345.6" width="460.8pt" xmlns="http://www.w3.org/2000/svg" xmlns:xlink="http://www.w3.org/1999/xlink">
 <defs>
  <style type="text/css">
*{stroke-linecap:butt;stroke-linejoin:round;}
  </style>
 </defs>
 <g id="figure_1">
  <g id="patch_1">
   <path d="M 0 345.6 
L 460.8 345.6 
L 460.8 0 
L 0 0 
z
" style="fill:#ffffff;"/>
  </g>
  <g id="axes_1">
   <g id="patch_2">
    <path d="M 57.6 307.584 
L 414.72 307.584 
L 414.72 41.472 
L 57.6 41.472 
z
" style="fill:#ffffff;"/>
   </g>
   <g id="matplotlib.axis_1">
    <g id="xtick_1">
     <g id="line2d_1">
      <defs>
       <path d="M 0 0 
L 0 3.5 
" id="mea0606e602" style="stroke:#000000;stroke-width:0.8;"/>
      </defs>
      <g>
       <use style="stroke:#000000;stroke-width:0.8;" x="71.03053" xlink:href="#mea0606e602" y="307.584"/>
      </g>
     </g>
     <g id="text_1">
      <!-- 1000 -->
      <defs>
       <path d="M 12.40625 8.296875 
L 28.515625 8.296875 
L 28.515625 63.921875 
L 10.984375 60.40625 
L 10.984375 69.390625 
L 28.421875 72.90625 
L 38.28125 72.90625 
L 38.28125 8.296875 
L 54.390625 8.296875 
L 54.390625 0 
L 12.40625 0 
z
" id="DejaVuSans-31"/>
       <path d="M 31.78125 66.40625 
Q 24.171875 66.40625 20.328125 58.90625 
Q 16.5 51.421875 16.5 36.375 
Q 16.5 21.390625 20.328125 13.890625 
Q 24.171875 6.390625 31.78125 6.390625 
Q 39.453125 6.390625 43.28125 13.890625 
Q 47.125 21.390625 47.125 36.375 
Q 47.125 51.421875 43.28125 58.90625 
Q 39.453125 66.40625 31.78125 66.40625 
z
M 31.78125 74.21875 
Q 44.046875 74.21875 50.515625 64.515625 
Q 56.984375 54.828125 56.984375 36.375 
Q 56.984375 17.96875 50.515625 8.265625 
Q 44.046875 -1.421875 31.78125 -1.421875 
Q 19.53125 -1.421875 13.0625 8.265625 
Q 6.59375 17.96875 6.59375 36.375 
Q 6.59375 54.828125 13.0625 64.515625 
Q 19.53125 74.21875 31.78125 74.21875 
z
" id="DejaVuSans-30"/>
      </defs>
      <g transform="translate(58.30553 322.182437)scale(0.1 -0.1)">
       <use xlink:href="#DejaVuSans-31"/>
       <use x="63.623047" xlink:href="#DejaVuSans-30"/>
       <use x="127.246094" xlink:href="#DejaVuSans-30"/>
       <use x="190.869141" xlink:href="#DejaVuSans-30"/>
      </g>
     </g>
    </g>
    <g id="xtick_2">
     <g id="line2d_2">
      <g>
       <use style="stroke:#000000;stroke-width:0.8;" x="137.749508" xlink:href="#mea0606e602" y="307.584"/>
      </g>
     </g>
     <g id="text_2">
      <!-- 1500 -->
      <defs>
       <path d="M 10.796875 72.90625 
L 49.515625 72.90625 
L 49.515625 64.59375 
L 19.828125 64.59375 
L 19.828125 46.734375 
Q 21.96875 47.46875 24.109375 47.828125 
Q 26.265625 48.1875 28.421875 48.1875 
Q 40.625 48.1875 47.75 41.5 
Q 54.890625 34.8125 54.890625 23.390625 
Q 54.890625 11.625 47.5625 5.09375 
Q 40.234375 -1.421875 26.90625 -1.421875 
Q 22.3125 -1.421875 17.546875 -0.640625 
Q 12.796875 0.140625 7.71875 1.703125 
L 7.71875 11.625 
Q 12.109375 9.234375 16.796875 8.0625 
Q 21.484375 6.890625 26.703125 6.890625 
Q 35.15625 6.890625 40.078125 11.328125 
Q 45.015625 15.765625 45.015625 23.390625 
Q 45.015625 31 40.078125 35.4375 
Q 35.15625 39.890625 26.703125 39.890625 
Q 22.75 39.890625 18.8125 39.015625 
Q 14.890625 38.140625 10.796875 36.28125 
z
" id="DejaVuSans-35"/>
      </defs>
      <g transform="translate(125.024508 322.182437)scale(0.1 -0.1)">
       <use xlink:href="#DejaVuSans-31"/>
       <use x="63.623047" xlink:href="#DejaVuSans-35"/>
       <use x="127.246094" xlink:href="#DejaVuSans-30"/>
       <use x="190.869141" xlink:href="#DejaVuSans-30"/>
      </g>
     </g>
    </g>
    <g id="xtick_3">
     <g id="line2d_3">
      <g>
       <use style="stroke:#000000;stroke-width:0.8;" x="204.468486" xlink:href="#mea0606e602" y="307.584"/>
      </g>
     </g>
     <g id="text_3">
      <!-- 2000 -->
      <defs>
       <path d="M 19.1875 8.296875 
L 53.609375 8.296875 
L 53.609375 0 
L 7.328125 0 
L 7.328125 8.296875 
Q 12.9375 14.109375 22.625 23.890625 
Q 32.328125 33.6875 34.8125 36.53125 
Q 39.546875 41.84375 41.421875 45.53125 
Q 43.3125 49.21875 43.3125 52.78125 
Q 43.3125 58.59375 39.234375 62.25 
Q 35.15625 65.921875 28.609375 65.921875 
Q 23.96875 65.921875 18.8125 64.3125 
Q 13.671875 62.703125 7.8125 59.421875 
L 7.8125 69.390625 
Q 13.765625 71.78125 18.9375 73 
Q 24.125 74.21875 28.421875 74.21875 
Q 39.75 74.21875 46.484375 68.546875 
Q 53.21875 62.890625 53.21875 53.421875 
Q 53.21875 48.921875 51.53125 44.890625 
Q 49.859375 40.875 45.40625 35.40625 
Q 44.1875 33.984375 37.640625 27.21875 
Q 31.109375 20.453125 19.1875 8.296875 
z
" id="DejaVuSans-32"/>
      </defs>
      <g transform="translate(191.743486 322.182437)scale(0.1 -0.1)">
       <use xlink:href="#DejaVuSans-32"/>
       <use x="63.623047" xlink:href="#DejaVuSans-30"/>
       <use x="127.246094" xlink:href="#DejaVuSans-30"/>
       <use x="190.869141" xlink:href="#DejaVuSans-30"/>
      </g>
     </g>
    </g>
    <g id="xtick_4">
     <g id="line2d_4">
      <g>
       <use style="stroke:#000000;stroke-width:0.8;" x="271.187463" xlink:href="#mea0606e602" y="307.584"/>
      </g>
     </g>
     <g id="text_4">
      <!-- 2500 -->
      <g transform="translate(258.462463 322.182437)scale(0.1 -0.1)">
       <use xlink:href="#DejaVuSans-32"/>
       <use x="63.623047" xlink:href="#DejaVuSans-35"/>
       <use x="127.246094" xlink:href="#DejaVuSans-30"/>
       <use x="190.869141" xlink:href="#DejaVuSans-30"/>
      </g>
     </g>
    </g>
    <g id="xtick_5">
     <g id="line2d_5">
      <g>
       <use style="stroke:#000000;stroke-width:0.8;" x="337.906441" xlink:href="#mea0606e602" y="307.584"/>
      </g>
     </g>
     <g id="text_5">
      <!-- 3000 -->
      <defs>
       <path d="M 40.578125 39.3125 
Q 47.65625 37.796875 51.625 33 
Q 55.609375 28.21875 55.609375 21.1875 
Q 55.609375 10.40625 48.1875 4.484375 
Q 40.765625 -1.421875 27.09375 -1.421875 
Q 22.515625 -1.421875 17.65625 -0.515625 
Q 12.796875 0.390625 7.625 2.203125 
L 7.625 11.71875 
Q 11.71875 9.328125 16.59375 8.109375 
Q 21.484375 6.890625 26.8125 6.890625 
Q 36.078125 6.890625 40.9375 10.546875 
Q 45.796875 14.203125 45.796875 21.1875 
Q 45.796875 27.640625 41.28125 31.265625 
Q 36.765625 34.90625 28.71875 34.90625 
L 20.21875 34.90625 
L 20.21875 43.015625 
L 29.109375 43.015625 
Q 36.375 43.015625 40.234375 45.921875 
Q 44.09375 48.828125 44.09375 54.296875 
Q 44.09375 59.90625 40.109375 62.90625 
Q 36.140625 65.921875 28.71875 65.921875 
Q 24.65625 65.921875 20.015625 65.03125 
Q 15.375 64.15625 9.8125 62.3125 
L 9.8125 71.09375 
Q 15.4375 72.65625 20.34375 73.4375 
Q 25.25 74.21875 29.59375 74.21875 
Q 40.828125 74.21875 47.359375 69.109375 
Q 53.90625 64.015625 53.90625 55.328125 
Q 53.90625 49.265625 50.4375 45.09375 
Q 46.96875 40.921875 40.578125 39.3125 
z
" id="DejaVuSans-33"/>
      </defs>
      <g transform="translate(325.181441 322.182437)scale(0.1 -0.1)">
       <use xlink:href="#DejaVuSans-33"/>
       <use x="63.623047" xlink:href="#DejaVuSans-30"/>
       <use x="127.246094" xlink:href="#DejaVuSans-30"/>
       <use x="190.869141" xlink:href="#DejaVuSans-30"/>
      </g>
     </g>
    </g>
    <g id="xtick_6">
     <g id="line2d_6">
      <g>
       <use style="stroke:#000000;stroke-width:0.8;" x="404.625419" xlink:href="#mea0606e602" y="307.584"/>
      </g>
     </g>
     <g id="text_6">
      <!-- 3500 -->
      <g transform="translate(391.900419 322.182437)scale(0.1 -0.1)">
       <use xlink:href="#DejaVuSans-33"/>
       <use x="63.623047" xlink:href="#DejaVuSans-35"/>
       <use x="127.246094" xlink:href="#DejaVuSans-30"/>
       <use x="190.869141" xlink:href="#DejaVuSans-30"/>
      </g>
     </g>
    </g>
    <g id="text_7">
     <!-- Size -->
     <defs>
      <path d="M 53.515625 70.515625 
L 53.515625 60.890625 
Q 47.90625 63.578125 42.921875 64.890625 
Q 37.9375 66.21875 33.296875 66.21875 
Q 25.25 66.21875 20.875 63.09375 
Q 16.5 59.96875 16.5 54.203125 
Q 16.5 49.359375 19.40625 46.890625 
Q 22.3125 44.4375 30.421875 42.921875 
L 36.375 41.703125 
Q 47.40625 39.59375 52.65625 34.296875 
Q 57.90625 29 57.90625 20.125 
Q 57.90625 9.515625 50.796875 4.046875 
Q 43.703125 -1.421875 29.984375 -1.421875 
Q 24.8125 -1.421875 18.96875 -0.25 
Q 13.140625 0.921875 6.890625 3.21875 
L 6.890625 13.375 
Q 12.890625 10.015625 18.65625 8.296875 
Q 24.421875 6.59375 29.984375 6.59375 
Q 38.421875 6.59375 43.015625 9.90625 
Q 47.609375 13.234375 47.609375 19.390625 
Q 47.609375 24.75 44.3125 27.78125 
Q 41.015625 30.8125 33.5 32.328125 
L 27.484375 33.5 
Q 16.453125 35.6875 11.515625 40.375 
Q 6.59375 45.0625 6.59375 53.421875 
Q 6.59375 63.09375 13.40625 68.65625 
Q 20.21875 74.21875 32.171875 74.21875 
Q 37.3125 74.21875 42.625 73.28125 
Q 47.953125 72.359375 53.515625 70.515625 
z
" id="DejaVuSans-53"/>
      <path d="M 9.421875 54.6875 
L 18.40625 54.6875 
L 18.40625 0 
L 9.421875 0 
z
M 9.421875 75.984375 
L 18.40625 75.984375 
L 18.40625 64.59375 
L 9.421875 64.59375 
z
" id="DejaVuSans-69"/>
      <path d="M 5.515625 54.6875 
L 48.1875 54.6875 
L 48.1875 46.484375 
L 14.40625 7.171875 
L 48.1875 7.171875 
L 48.1875 0 
L 4.296875 0 
L 4.296875 8.203125 
L 38.09375 47.515625 
L 5.515625 47.515625 
z
" id="DejaVuSans-7a"/>
      <path d="M 56.203125 29.59375 
L 56.203125 25.203125 
L 14.890625 25.203125 
Q 15.484375 15.921875 20.484375 11.0625 
Q 25.484375 6.203125 34.421875 6.203125 
Q 39.59375 6.203125 44.453125 7.46875 
Q 49.3125 8.734375 54.109375 11.28125 
L 54.109375 2.78125 
Q 49.265625 0.734375 44.1875 -0.34375 
Q 39.109375 -1.421875 33.890625 -1.421875 
Q 20.796875 -1.421875 13.15625 6.1875 
Q 5.515625 13.8125 5.515625 26.8125 
Q 5.515625 40.234375 12.765625 48.109375 
Q 20.015625 56 32.328125 56 
Q 43.359375 56 49.78125 48.890625 
Q 56.203125 41.796875 56.203125 29.59375 
z
M 47.21875 32.234375 
Q 47.125 39.59375 43.09375 43.984375 
Q 39.0625 48.390625 32.421875 48.390625 
Q 24.90625 48.390625 20.390625 44.140625 
Q 15.875 39.890625 15.1875 32.171875 
z
" id="DejaVuSans-65"/>
     </defs>
     <g transform="translate(225.895938 335.860562)scale(0.1 -0.1)">
      <use xlink:href="#DejaVuSans-53"/>
      <use x="63.476562" xlink:href="#DejaVuSans-69"/>
      <use x="91.259766" xlink:href="#DejaVuSans-7a"/>
      <use x="143.75" xlink:href="#DejaVuSans-65"/>
     </g>
    </g>
   </g>
   <g id="matplotlib.axis_2">
    <g id="ytick_1">
     <g id="line2d_7">
      <defs>
       <path d="M 0 0 
L -3.5 0 
" id="mca57254bc4" style="stroke:#000000;stroke-width:0.8;"/>
      </defs>
      <g>
       <use style="stroke:#000000;stroke-width:0.8;" x="57.6" xlink:href="#mca57254bc4" y="274.312077"/>
      </g>
     </g>
     <g id="text_8">
      <!-- 150000 -->
      <g transform="translate(12.425 278.111296)scale(0.1 -0.1)">
       <use xlink:href="#DejaVuSans-31"/>
       <use x="63.623047" xlink:href="#DejaVuSans-35"/>
       <use x="127.246094" xlink:href="#DejaVuSans-30"/>
       <use x="190.869141" xlink:href="#DejaVuSans-30"/>
       <use x="254.492188" xlink:href="#DejaVuSans-30"/>
       <use x="318.115234" xlink:href="#DejaVuSans-30"/>
      </g>
     </g>
    </g>
    <g id="ytick_2">
     <g id="line2d_8">
      <g>
       <use style="stroke:#000000;stroke-width:0.8;" x="57.6" xlink:href="#mca57254bc4" y="230.173502"/>
      </g>
     </g>
     <g id="text_9">
      <!-- 200000 -->
      <g transform="translate(12.425 233.972721)scale(0.1 -0.1)">
       <use xlink:href="#DejaVuSans-32"/>
       <use x="63.623047" xlink:href="#DejaVuSans-30"/>
       <use x="127.246094" xlink:href="#DejaVuSans-30"/>
       <use x="190.869141" xlink:href="#DejaVuSans-30"/>
       <use x="254.492188" xlink:href="#DejaVuSans-30"/>
       <use x="318.115234" xlink:href="#DejaVuSans-30"/>
      </g>
     </g>
    </g>
    <g id="ytick_3">
     <g id="line2d_9">
      <g>
       <use style="stroke:#000000;stroke-width:0.8;" x="57.6" xlink:href="#mca57254bc4" y="186.034927"/>
      </g>
     </g>
     <g id="text_10">
      <!-- 250000 -->
      <g transform="translate(12.425 189.834145)scale(0.1 -0.1)">
       <use xlink:href="#DejaVuSans-32"/>
       <use x="63.623047" xlink:href="#DejaVuSans-35"/>
       <use x="127.246094" xlink:href="#DejaVuSans-30"/>
       <use x="190.869141" xlink:href="#DejaVuSans-30"/>
       <use x="254.492188" xlink:href="#DejaVuSans-30"/>
       <use x="318.115234" xlink:href="#DejaVuSans-30"/>
      </g>
     </g>
    </g>
    <g id="ytick_4">
     <g id="line2d_10">
      <g>
       <use style="stroke:#000000;stroke-width:0.8;" x="57.6" xlink:href="#mca57254bc4" y="141.896351"/>
      </g>
     </g>
     <g id="text_11">
      <!-- 300000 -->
      <g transform="translate(12.425 145.69557)scale(0.1 -0.1)">
       <use xlink:href="#DejaVuSans-33"/>
       <use x="63.623047" xlink:href="#DejaVuSans-30"/>
       <use x="127.246094" xlink:href="#DejaVuSans-30"/>
       <use x="190.869141" xlink:href="#DejaVuSans-30"/>
       <use x="254.492188" xlink:href="#DejaVuSans-30"/>
       <use x="318.115234" xlink:href="#DejaVuSans-30"/>
      </g>
     </g>
    </g>
    <g id="ytick_5">
     <g id="line2d_11">
      <g>
       <use style="stroke:#000000;stroke-width:0.8;" x="57.6" xlink:href="#mca57254bc4" y="97.757776"/>
      </g>
     </g>
     <g id="text_12">
      <!-- 350000 -->
      <g transform="translate(12.425 101.556995)scale(0.1 -0.1)">
       <use xlink:href="#DejaVuSans-33"/>
       <use x="63.623047" xlink:href="#DejaVuSans-35"/>
       <use x="127.246094" xlink:href="#DejaVuSans-30"/>
       <use x="190.869141" xlink:href="#DejaVuSans-30"/>
       <use x="254.492188" xlink:href="#DejaVuSans-30"/>
       <use x="318.115234" xlink:href="#DejaVuSans-30"/>
      </g>
     </g>
    </g>
    <g id="ytick_6">
     <g id="line2d_12">
      <g>
       <use style="stroke:#000000;stroke-width:0.8;" x="57.6" xlink:href="#mca57254bc4" y="53.619201"/>
      </g>
     </g>
     <g id="text_13">
      <!-- 400000 -->
      <defs>
       <path d="M 37.796875 64.3125 
L 12.890625 25.390625 
L 37.796875 25.390625 
z
M 35.203125 72.90625 
L 47.609375 72.90625 
L 47.609375 25.390625 
L 58.015625 25.390625 
L 58.015625 17.1875 
L 47.609375 17.1875 
L 47.609375 0 
L 37.796875 0 
L 37.796875 17.1875 
L 4.890625 17.1875 
L 4.890625 26.703125 
z
" id="DejaVuSans-34"/>
      </defs>
      <g transform="translate(12.425 57.418419)scale(0.1 -0.1)">
       <use xlink:href="#DejaVuSans-34"/>
       <use x="63.623047" xlink:href="#DejaVuSans-30"/>
       <use x="127.246094" xlink:href="#DejaVuSans-30"/>
       <use x="190.869141" xlink:href="#DejaVuSans-30"/>
       <use x="254.492188" xlink:href="#DejaVuSans-30"/>
       <use x="318.115234" xlink:href="#DejaVuSans-30"/>
      </g>
     </g>
    </g>
    <g id="text_14">
     <!-- Price -->
     <defs>
      <path d="M 19.671875 64.796875 
L 19.671875 37.40625 
L 32.078125 37.40625 
Q 38.96875 37.40625 42.71875 40.96875 
Q 46.484375 44.53125 46.484375 51.125 
Q 46.484375 57.671875 42.71875 61.234375 
Q 38.96875 64.796875 32.078125 64.796875 
z
M 9.8125 72.90625 
L 32.078125 72.90625 
Q 44.34375 72.90625 50.609375 67.359375 
Q 56.890625 61.8125 56.890625 51.125 
Q 56.890625 40.328125 50.609375 34.8125 
Q 44.34375 29.296875 32.078125 29.296875 
L 19.671875 29.296875 
L 19.671875 0 
L 9.8125 0 
z
" id="DejaVuSans-50"/>
      <path d="M 41.109375 46.296875 
Q 39.59375 47.171875 37.8125 47.578125 
Q 36.03125 48 33.890625 48 
Q 26.265625 48 22.1875 43.046875 
Q 18.109375 38.09375 18.109375 28.8125 
L 18.109375 0 
L 9.078125 0 
L 9.078125 54.6875 
L 18.109375 54.6875 
L 18.109375 46.1875 
Q 20.953125 51.171875 25.484375 53.578125 
Q 30.03125 56 36.53125 56 
Q 37.453125 56 38.578125 55.875 
Q 39.703125 55.765625 41.0625 55.515625 
z
" id="DejaVuSans-72"/>
      <path d="M 48.78125 52.59375 
L 48.78125 44.1875 
Q 44.96875 46.296875 41.140625 47.34375 
Q 37.3125 48.390625 33.40625 48.390625 
Q 24.65625 48.390625 19.8125 42.84375 
Q 14.984375 37.3125 14.984375 27.296875 
Q 14.984375 17.28125 19.8125 11.734375 
Q 24.65625 6.203125 33.40625 6.203125 
Q 37.3125 6.203125 41.140625 7.25 
Q 44.96875 8.296875 48.78125 10.40625 
L 48.78125 2.09375 
Q 45.015625 0.34375 40.984375 -0.53125 
Q 36.96875 -1.421875 32.421875 -1.421875 
Q 20.0625 -1.421875 12.78125 6.34375 
Q 5.515625 14.109375 5.515625 27.296875 
Q 5.515625 40.671875 12.859375 48.328125 
Q 20.21875 56 33.015625 56 
Q 37.15625 56 41.109375 55.140625 
Q 45.0625 54.296875 48.78125 52.59375 
z
" id="DejaVuSans-63"/>
     </defs>
     <g transform="translate(6.345312 186.812375)rotate(-90)scale(0.1 -0.1)">
      <use xlink:href="#DejaVuSans-50"/>
      <use x="60.287109" xlink:href="#DejaVuSans-72"/>
      <use x="101.400391" xlink:href="#DejaVuSans-69"/>
      <use x="129.183594" xlink:href="#DejaVuSans-63"/>
      <use x="184.164062" xlink:href="#DejaVuSans-65"/>
     </g>
    </g>
   </g>
   <g id="line2d_13">
    <defs>
     <path d="M -3 3 
L 3 -3 
M -3 -3 
L 3 3 
" id="m32651eedb5" style="stroke:#0000ff;"/>
    </defs>
    <g clip-path="url(#pb9221517d5)">
     <use style="fill:#0000ff;stroke:#0000ff;" x="185.787172" xlink:href="#m32651eedb5" y="210.933497"/>
     <use style="fill:#0000ff;stroke:#0000ff;" x="243.699244" xlink:href="#m32651eedb5" y="185.805406"/>
     <use style="fill:#0000ff;stroke:#0000ff;" x="221.81542" xlink:href="#m32651eedb5" y="167.357247"/>
     <use style="fill:#0000ff;stroke:#0000ff;" x="217.145091" xlink:href="#m32651eedb5" y="164.643607"/>
     <use style="fill:#0000ff;stroke:#0000ff;" x="289.601901" xlink:href="#m32651eedb5" y="146.236056"/>
     <use style="fill:#0000ff;stroke:#0000ff;" x="360.457455" xlink:href="#m32651eedb5" y="103.791519"/>
     <use style="fill:#0000ff;stroke:#0000ff;" x="133.212617" xlink:href="#m32651eedb5" y="244.78337"/>
     <use style="fill:#0000ff;stroke:#0000ff;" x="236.226719" xlink:href="#m32651eedb5" y="158.674307"/>
     <use style="fill:#0000ff;stroke:#0000ff;" x="115.065055" xlink:href="#m32651eedb5" y="252.276335"/>
     <use style="fill:#0000ff;stroke:#0000ff;" x="268.78558" xlink:href="#m32651eedb5" y="128.309615"/>
     <use style="fill:#0000ff;stroke:#0000ff;" x="355.920565" xlink:href="#m32651eedb5" y="73.365917"/>
     <use style="fill:#0000ff;stroke:#0000ff;" x="88.377464" xlink:href="#m32651eedb5" y="275.174545"/>
     <use style="fill:#0000ff;stroke:#0000ff;" x="295.873485" xlink:href="#m32651eedb5" y="115.775142"/>
     <use style="fill:#0000ff;stroke:#0000ff;" x="173.644318" xlink:href="#m32651eedb5" y="231.422624"/>
     <use style="fill:#0000ff;stroke:#0000ff;" x="390.080682" xlink:href="#m32651eedb5" y="89.045704"/>
     <use style="fill:#0000ff;stroke:#0000ff;" x="273.189033" xlink:href="#m32651eedb5" y="164.907556"/>
     <use style="fill:#0000ff;stroke:#0000ff;" x="395.685076" xlink:href="#m32651eedb5" y="81.328516"/>
     <use style="fill:#0000ff;stroke:#0000ff;" x="233.157646" xlink:href="#m32651eedb5" y="160.152949"/>
     <use style="fill:#0000ff;stroke:#0000ff;" x="198.463778" xlink:href="#m32651eedb5" y="181.896494"/>
     <use style="fill:#0000ff;stroke:#0000ff;" x="381.140339" xlink:href="#m32651eedb5" y="80.130595"/>
     <use style="fill:#0000ff;stroke:#0000ff;" x="229.021069" xlink:href="#m32651eedb5" y="178.823566"/>
     <use style="fill:#0000ff;stroke:#0000ff;" x="132.278552" xlink:href="#m32651eedb5" y="234.946647"/>
     <use style="fill:#0000ff;stroke:#0000ff;" x="73.832727" xlink:href="#m32651eedb5" y="293.295196"/>
     <use style="fill:#0000ff;stroke:#0000ff;" x="377.937828" xlink:href="#m32651eedb5" y="73.499215"/>
     <use style="fill:#0000ff;stroke:#0000ff;" x="170.708683" xlink:href="#m32651eedb5" y="198.275436"/>
     <use style="fill:#0000ff;stroke:#0000ff;" x="134.280121" xlink:href="#m32651eedb5" y="236.301702"/>
     <use style="fill:#0000ff;stroke:#0000ff;" x="215.410398" xlink:href="#m32651eedb5" y="188.557888"/>
     <use style="fill:#0000ff;stroke:#0000ff;" x="344.178025" xlink:href="#m32651eedb5" y="103.821533"/>
     <use style="fill:#0000ff;stroke:#0000ff;" x="201.132537" xlink:href="#m32651eedb5" y="212.300027"/>
     <use style="fill:#0000ff;stroke:#0000ff;" x="312.019478" xlink:href="#m32651eedb5" y="141.199845"/>
     <use style="fill:#0000ff;stroke:#0000ff;" x="96.250304" xlink:href="#m32651eedb5" y="267.234015"/>
     <use style="fill:#0000ff;stroke:#0000ff;" x="146.022661" xlink:href="#m32651eedb5" y="219.604079"/>
     <use style="fill:#0000ff;stroke:#0000ff;" x="324.429207" xlink:href="#m32651eedb5" y="131.48053"/>
     <use style="fill:#0000ff;stroke:#0000ff;" x="240.09642" xlink:href="#m32651eedb5" y="187.829601"/>
     <use style="fill:#0000ff;stroke:#0000ff;" x="274.923726" xlink:href="#m32651eedb5" y="138.055412"/>
     <use style="fill:#0000ff;stroke:#0000ff;" x="157.231449" xlink:href="#m32651eedb5" y="233.709885"/>
     <use style="fill:#0000ff;stroke:#0000ff;" x="346.980222" xlink:href="#m32651eedb5" y="115.098939"/>
     <use style="fill:#0000ff;stroke:#0000ff;" x="366.462163" xlink:href="#m32651eedb5" y="101.91563"/>
     <use style="fill:#0000ff;stroke:#0000ff;" x="244.099558" xlink:href="#m32651eedb5" y="149.571167"/>
     <use style="fill:#0000ff;stroke:#0000ff;" x="395.951952" xlink:href="#m32651eedb5" y="58.703965"/>
     <use style="fill:#0000ff;stroke:#0000ff;" x="151.093303" xlink:href="#m32651eedb5" y="235.02698"/>
     <use style="fill:#0000ff;stroke:#0000ff;" x="386.344419" xlink:href="#m32651eedb5" y="72.9722"/>
     <use style="fill:#0000ff;stroke:#0000ff;" x="346.046156" xlink:href="#m32651eedb5" y="109.474802"/>
     <use style="fill:#0000ff;stroke:#0000ff;" x="103.189077" xlink:href="#m32651eedb5" y="271.759102"/>
     <use style="fill:#0000ff;stroke:#0000ff;" x="343.377397" xlink:href="#m32651eedb5" y="82.377248"/>
     <use style="fill:#0000ff;stroke:#0000ff;" x="252.906463" xlink:href="#m32651eedb5" y="142.495753"/>
     <use style="fill:#0000ff;stroke:#0000ff;" x="356.454317" xlink:href="#m32651eedb5" y="104.525985"/>
     <use style="fill:#0000ff;stroke:#0000ff;" x="256.509288" xlink:href="#m32651eedb5" y="140.129926"/>
     <use style="fill:#0000ff;stroke:#0000ff;" x="268.251828" xlink:href="#m32651eedb5" y="160.596983"/>
     <use style="fill:#0000ff;stroke:#0000ff;" x="174.444946" xlink:href="#m32651eedb5" y="211.28484"/>
     <use style="fill:#0000ff;stroke:#0000ff;" x="75.567421" xlink:href="#m32651eedb5" y="295.488"/>
     <use style="fill:#0000ff;stroke:#0000ff;" x="371.666244" xlink:href="#m32651eedb5" y="81.176679"/>
     <use style="fill:#0000ff;stroke:#0000ff;" x="331.901733" xlink:href="#m32651eedb5" y="85.350423"/>
     <use style="fill:#0000ff;stroke:#0000ff;" x="282.529689" xlink:href="#m32651eedb5" y="145.728462"/>
     <use style="fill:#0000ff;stroke:#0000ff;" x="207.270683" xlink:href="#m32651eedb5" y="170.962486"/>
     <use style="fill:#0000ff;stroke:#0000ff;" x="221.681982" xlink:href="#m32651eedb5" y="164.941984"/>
     <use style="fill:#0000ff;stroke:#0000ff;" x="271.187463" xlink:href="#m32651eedb5" y="155.543116"/>
     <use style="fill:#0000ff;stroke:#0000ff;" x="164.703975" xlink:href="#m32651eedb5" y="207.11551"/>
     <use style="fill:#0000ff;stroke:#0000ff;" x="397.820083" xlink:href="#m32651eedb5" y="61.18367"/>
     <use style="fill:#0000ff;stroke:#0000ff;" x="281.729062" xlink:href="#m32651eedb5" y="160.006409"/>
     <use style="fill:#0000ff;stroke:#0000ff;" x="92.514041" xlink:href="#m32651eedb5" y="283.101833"/>
     <use style="fill:#0000ff;stroke:#0000ff;" x="97.851559" xlink:href="#m32651eedb5" y="261.918848"/>
     <use style="fill:#0000ff;stroke:#0000ff;" x="335.37112" xlink:href="#m32651eedb5" y="108.742102"/>
     <use style="fill:#0000ff;stroke:#0000ff;" x="203.801296" xlink:href="#m32651eedb5" y="212.058148"/>
     <use style="fill:#0000ff;stroke:#0000ff;" x="380.206273" xlink:href="#m32651eedb5" y="85.970128"/>
     <use style="fill:#0000ff;stroke:#0000ff;" x="179.782464" xlink:href="#m32651eedb5" y="190.384342"/>
     <use style="fill:#0000ff;stroke:#0000ff;" x="131.7448" xlink:href="#m32651eedb5" y="248.784974"/>
     <use style="fill:#0000ff;stroke:#0000ff;" x="241.163923" xlink:href="#m32651eedb5" y="152.262737"/>
     <use style="fill:#0000ff;stroke:#0000ff;" x="206.603493" xlink:href="#m32651eedb5" y="202.549816"/>
     <use style="fill:#0000ff;stroke:#0000ff;" x="383.67566" xlink:href="#m32651eedb5" y="53.568"/>
     <use style="fill:#0000ff;stroke:#0000ff;" x="115.999121" xlink:href="#m32651eedb5" y="264.978534"/>
     <use style="fill:#0000ff;stroke:#0000ff;" x="188.189055" xlink:href="#m32651eedb5" y="218.278156"/>
     <use style="fill:#0000ff;stroke:#0000ff;" x="214.60977" xlink:href="#m32651eedb5" y="205.666882"/>
     <use style="fill:#0000ff;stroke:#0000ff;" x="176.579953" xlink:href="#m32651eedb5" y="198.24807"/>
     <use style="fill:#0000ff;stroke:#0000ff;" x="373.134061" xlink:href="#m32651eedb5" y="77.491991"/>
     <use style="fill:#0000ff;stroke:#0000ff;" x="172.84369" xlink:href="#m32651eedb5" y="203.634742"/>
     <use style="fill:#0000ff;stroke:#0000ff;" x="369.26436" xlink:href="#m32651eedb5" y="74.712143"/>
     <use style="fill:#0000ff;stroke:#0000ff;" x="121.603515" xlink:href="#m32651eedb5" y="257.156296"/>
     <use style="fill:#0000ff;stroke:#0000ff;" x="136.682004" xlink:href="#m32651eedb5" y="231.650379"/>
     <use style="fill:#0000ff;stroke:#0000ff;" x="228.487318" xlink:href="#m32651eedb5" y="160.966864"/>
     <use style="fill:#0000ff;stroke:#0000ff;" x="346.179594" xlink:href="#m32651eedb5" y="95.947212"/>
     <use style="fill:#0000ff;stroke:#0000ff;" x="79.570559" xlink:href="#m32651eedb5" y="294.248589"/>
     <use style="fill:#0000ff;stroke:#0000ff;" x="253.440215" xlink:href="#m32651eedb5" y="158.7105"/>
     <use style="fill:#0000ff;stroke:#0000ff;" x="224.751055" xlink:href="#m32651eedb5" y="177.669784"/>
     <use style="fill:#0000ff;stroke:#0000ff;" x="341.509266" xlink:href="#m32651eedb5" y="101.335649"/>
     <use style="fill:#0000ff;stroke:#0000ff;" x="270.520274" xlink:href="#m32651eedb5" y="147.369535"/>
     <use style="fill:#0000ff;stroke:#0000ff;" x="226.085434" xlink:href="#m32651eedb5" y="190.688015"/>
     <use style="fill:#0000ff;stroke:#0000ff;" x="274.123098" xlink:href="#m32651eedb5" y="151.198997"/>
     <use style="fill:#0000ff;stroke:#0000ff;" x="123.204771" xlink:href="#m32651eedb5" y="258.09733"/>
     <use style="fill:#0000ff;stroke:#0000ff;" x="297.608178" xlink:href="#m32651eedb5" y="132.123188"/>
     <use style="fill:#0000ff;stroke:#0000ff;" x="126.807596" xlink:href="#m32651eedb5" y="253.138803"/>
     <use style="fill:#0000ff;stroke:#0000ff;" x="382.741594" xlink:href="#m32651eedb5" y="75.827084"/>
     <use style="fill:#0000ff;stroke:#0000ff;" x="121.470077" xlink:href="#m32651eedb5" y="232.910976"/>
     <use style="fill:#0000ff;stroke:#0000ff;" x="310.685098" xlink:href="#m32651eedb5" y="134.683225"/>
     <use style="fill:#0000ff;stroke:#0000ff;" x="375.002193" xlink:href="#m32651eedb5" y="64.4102"/>
     <use style="fill:#0000ff;stroke:#0000ff;" x="349.648981" xlink:href="#m32651eedb5" y="82.888373"/>
     <use style="fill:#0000ff;stroke:#0000ff;" x="362.192149" xlink:href="#m32651eedb5" y="64.727997"/>
     <use style="fill:#0000ff;stroke:#0000ff;" x="97.718121" xlink:href="#m32651eedb5" y="239.898113"/>
     <use style="fill:#0000ff;stroke:#0000ff;" x="319.625441" xlink:href="#m32651eedb5" y="100.340765"/>
     <use style="fill:#0000ff;stroke:#0000ff;" x="174.978697" xlink:href="#m32651eedb5" y="229.760365"/>
     <use style="fill:#0000ff;stroke:#0000ff;" x="138.016384" xlink:href="#m32651eedb5" y="254.690715"/>
     <use style="fill:#0000ff;stroke:#0000ff;" x="398.487273" xlink:href="#m32651eedb5" y="81.784026"/>
     <use style="fill:#0000ff;stroke:#0000ff;" x="304.68039" xlink:href="#m32651eedb5" y="103.681173"/>
     <use style="fill:#0000ff;stroke:#0000ff;" x="178.314646" xlink:href="#m32651eedb5" y="225.178781"/>
     <use style="fill:#0000ff;stroke:#0000ff;" x="357.388382" xlink:href="#m32651eedb5" y="91.929719"/>
     <use style="fill:#0000ff;stroke:#0000ff;" x="323.895456" xlink:href="#m32651eedb5" y="98.637016"/>
     <use style="fill:#0000ff;stroke:#0000ff;" x="280.52812" xlink:href="#m32651eedb5" y="132.928276"/>
     <use style="fill:#0000ff;stroke:#0000ff;" x="199.130967" xlink:href="#m32651eedb5" y="203.702715"/>
     <use style="fill:#0000ff;stroke:#0000ff;" x="269.185894" xlink:href="#m32651eedb5" y="158.52247"/>
     <use style="fill:#0000ff;stroke:#0000ff;" x="208.204748" xlink:href="#m32651eedb5" y="175.918365"/>
     <use style="fill:#0000ff;stroke:#0000ff;" x="138.016384" xlink:href="#m32651eedb5" y="253.336543"/>
     <use style="fill:#0000ff;stroke:#0000ff;" x="124.005398" xlink:href="#m32651eedb5" y="242.043248"/>
     <use style="fill:#0000ff;stroke:#0000ff;" x="187.121551" xlink:href="#m32651eedb5" y="189.608386"/>
     <use style="fill:#0000ff;stroke:#0000ff;" x="123.338209" xlink:href="#m32651eedb5" y="246.185211"/>
     <use style="fill:#0000ff;stroke:#0000ff;" x="98.518749" xlink:href="#m32651eedb5" y="275.201911"/>
     <use style="fill:#0000ff;stroke:#0000ff;" x="209.539128" xlink:href="#m32651eedb5" y="182.208112"/>
     <use style="fill:#0000ff;stroke:#0000ff;" x="322.027324" xlink:href="#m32651eedb5" y="123.210727"/>
     <use style="fill:#0000ff;stroke:#0000ff;" x="269.052456" xlink:href="#m32651eedb5" y="127.389767"/>
     <use style="fill:#0000ff;stroke:#0000ff;" x="186.187486" xlink:href="#m32651eedb5" y="203.779517"/>
     <use style="fill:#0000ff;stroke:#0000ff;" x="146.156099" xlink:href="#m32651eedb5" y="220.002209"/>
     <use style="fill:#0000ff;stroke:#0000ff;" x="207.137245" xlink:href="#m32651eedb5" y="200.303162"/>
     <use style="fill:#0000ff;stroke:#0000ff;" x="83.707136" xlink:href="#m32651eedb5" y="280.015664"/>
     <use style="fill:#0000ff;stroke:#0000ff;" x="327.631718" xlink:href="#m32651eedb5" y="103.83301"/>
     <use style="fill:#0000ff;stroke:#0000ff;" x="305.481018" xlink:href="#m32651eedb5" y="128.818091"/>
     <use style="fill:#0000ff;stroke:#0000ff;" x="375.002193" xlink:href="#m32651eedb5" y="90.020284"/>
     <use style="fill:#0000ff;stroke:#0000ff;" x="294.939419" xlink:href="#m32651eedb5" y="131.004716"/>
     <use style="fill:#0000ff;stroke:#0000ff;" x="143.087026" xlink:href="#m32651eedb5" y="215.581289"/>
     <use style="fill:#0000ff;stroke:#0000ff;" x="212.341325" xlink:href="#m32651eedb5" y="202.846427"/>
     <use style="fill:#0000ff;stroke:#0000ff;" x="228.887631" xlink:href="#m32651eedb5" y="167.689169"/>
     <use style="fill:#0000ff;stroke:#0000ff;" x="300.810689" xlink:href="#m32651eedb5" y="106.659644"/>
     <use style="fill:#0000ff;stroke:#0000ff;" x="313.754171" xlink:href="#m32651eedb5" y="133.059809"/>
     <use style="fill:#0000ff;stroke:#0000ff;" x="284.130945" xlink:href="#m32651eedb5" y="147.658201"/>
     <use style="fill:#0000ff;stroke:#0000ff;" x="177.113705" xlink:href="#m32651eedb5" y="206.54524"/>
     <use style="fill:#0000ff;stroke:#0000ff;" x="211.273821" xlink:href="#m32651eedb5" y="192.64512"/>
     <use style="fill:#0000ff;stroke:#0000ff;" x="290.269091" xlink:href="#m32651eedb5" y="126.386056"/>
     <use style="fill:#0000ff;stroke:#0000ff;" x="252.906463" xlink:href="#m32651eedb5" y="174.373515"/>
     <use style="fill:#0000ff;stroke:#0000ff;" x="335.37112" xlink:href="#m32651eedb5" y="85.793574"/>
     <use style="fill:#0000ff;stroke:#0000ff;" x="251.705522" xlink:href="#m32651eedb5" y="158.804957"/>
     <use style="fill:#0000ff;stroke:#0000ff;" x="292.93785" xlink:href="#m32651eedb5" y="153.80847"/>
     <use style="fill:#0000ff;stroke:#0000ff;" x="275.057164" xlink:href="#m32651eedb5" y="146.823982"/>
     <use style="fill:#0000ff;stroke:#0000ff;" x="342.977083" xlink:href="#m32651eedb5" y="101.146736"/>
     <use style="fill:#0000ff;stroke:#0000ff;" x="270.653711" xlink:href="#m32651eedb5" y="148.058979"/>
     <use style="fill:#0000ff;stroke:#0000ff;" x="369.531236" xlink:href="#m32651eedb5" y="60.326499"/>
     <use style="fill:#0000ff;stroke:#0000ff;" x="258.911171" xlink:href="#m32651eedb5" y="139.845673"/>
     <use style="fill:#0000ff;stroke:#0000ff;" x="257.843668" xlink:href="#m32651eedb5" y="137.349195"/>
     <use style="fill:#0000ff;stroke:#0000ff;" x="245.3005" xlink:href="#m32651eedb5" y="165.728534"/>
     <use style="fill:#0000ff;stroke:#0000ff;" x="200.732223" xlink:href="#m32651eedb5" y="198.975474"/>
     <use style="fill:#0000ff;stroke:#0000ff;" x="306.948835" xlink:href="#m32651eedb5" y="131.638546"/>
     <use style="fill:#0000ff;stroke:#0000ff;" x="242.097989" xlink:href="#m32651eedb5" y="152.011147"/>
     <use style="fill:#0000ff;stroke:#0000ff;" x="165.638041" xlink:href="#m32651eedb5" y="232.579937"/>
     <use style="fill:#0000ff;stroke:#0000ff;" x="268.385266" xlink:href="#m32651eedb5" y="168.752026"/>
     <use style="fill:#0000ff;stroke:#0000ff;" x="262.380558" xlink:href="#m32651eedb5" y="144.344277"/>
     <use style="fill:#0000ff;stroke:#0000ff;" x="157.498325" xlink:href="#m32651eedb5" y="229.292496"/>
     <use style="fill:#0000ff;stroke:#0000ff;" x="113.330362" xlink:href="#m32651eedb5" y="264.059569"/>
     <use style="fill:#0000ff;stroke:#0000ff;" x="238.76204" xlink:href="#m32651eedb5" y="165.210347"/>
     <use style="fill:#0000ff;stroke:#0000ff;" x="162.168654" xlink:href="#m32651eedb5" y="220.817007"/>
     <use style="fill:#0000ff;stroke:#0000ff;" x="159.499895" xlink:href="#m32651eedb5" y="203.791875"/>
     <use style="fill:#0000ff;stroke:#0000ff;" x="337.639565" xlink:href="#m32651eedb5" y="85.850071"/>
     <use style="fill:#0000ff;stroke:#0000ff;" x="288.667835" xlink:href="#m32651eedb5" y="119.247083"/>
     <use style="fill:#0000ff;stroke:#0000ff;" x="270.520274" xlink:href="#m32651eedb5" y="125.494457"/>
    </g>
   </g>
   <g id="patch_3">
    <path d="M 57.6 307.584 
L 57.6 41.472 
" style="fill:none;stroke:#000000;stroke-linecap:square;stroke-linejoin:miter;stroke-width:0.8;"/>
   </g>
   <g id="patch_4">
    <path d="M 414.72 307.584 
L 414.72 41.472 
" style="fill:none;stroke:#000000;stroke-linecap:square;stroke-linejoin:miter;stroke-width:0.8;"/>
   </g>
   <g id="patch_5">
    <path d="M 57.6 307.584 
L 414.72 307.584 
" style="fill:none;stroke:#000000;stroke-linecap:square;stroke-linejoin:miter;stroke-width:0.8;"/>
   </g>
   <g id="patch_6">
    <path d="M 57.6 41.472 
L 414.72 41.472 
" style="fill:none;stroke:#000000;stroke-linecap:square;stroke-linejoin:miter;stroke-width:0.8;"/>
   </g>
  </g>
 </g>
 <defs>
  <clipPath id="pb9221517d5">
   <rect height="266.112" width="357.12" x="57.6" y="41.472"/>
  </clipPath>
 </defs>
</svg>
