<?xml version="1.0" encoding="utf-8" standalone="no"?>
<!DOCTYPE svg PUBLIC "-//W3C//DTD SVG 1.1//EN"
  "http://www.w3.org/Graphics/SVG/1.1/DTD/svg11.dtd">
<!-- Created with matplotlib (http://matplotlib.org/) -->
<svg height="576pt" version="1.1" viewBox="0 0 720 576" width="720pt" xmlns="http://www.w3.org/2000/svg" xmlns:xlink="http://www.w3.org/1999/xlink">
 <defs>
  <style type="text/css">
*{stroke-linecap:butt;stroke-linejoin:round;}
  </style>
 </defs>
 <g id="figure_1">
  <g id="patch_1">
   <path d="M 0 576 
L 720 576 
L 720 0 
L 0 0 
z
" style="fill:#ffffff;"/>
  </g>
  <g id="axes_1">
   <g id="patch_2">
    <path d="M 90 512.64 
L 648 512.64 
L 648 69.12 
L 90 69.12 
z
" style="fill:#ffffff;"/>
   </g>
   <g id="matplotlib.axis_1">
    <g id="xtick_1">
     <g id="line2d_1">
      <defs>
       <path d="M 0 0 
L 0 3.5 
" id="m1550e131e6" style="stroke:#000000;stroke-width:0.8;"/>
      </defs>
      <g>
       <use style="stroke:#000000;stroke-width:0.8;" x="110.985203" xlink:href="#m1550e131e6" y="512.64"/>
      </g>
     </g>
     <g id="text_1">
      <!-- 1000 -->
      <defs>
       <path d="M 12.40625 8.296875 
L 28.515625 8.296875 
L 28.515625 63.921875 
L 10.984375 60.40625 
L 10.984375 69.390625 
L 28.421875 72.90625 
L 38.28125 72.90625 
L 38.28125 8.296875 
L 54.390625 8.296875 
L 54.390625 0 
L 12.40625 0 
z
" id="DejaVuSans-31"/>
       <path d="M 31.78125 66.40625 
Q 24.171875 66.40625 20.328125 58.90625 
Q 16.5 51.421875 16.5 36.375 
Q 16.5 21.390625 20.328125 13.890625 
Q 24.171875 6.390625 31.78125 6.390625 
Q 39.453125 6.390625 43.28125 13.890625 
Q 47.125 21.390625 47.125 36.375 
Q 47.125 51.421875 43.28125 58.90625 
Q 39.453125 66.40625 31.78125 66.40625 
z
M 31.78125 74.21875 
Q 44.046875 74.21875 50.515625 64.515625 
Q 56.984375 54.828125 56.984375 36.375 
Q 56.984375 17.96875 50.515625 8.265625 
Q 44.046875 -1.421875 31.78125 -1.421875 
Q 19.53125 -1.421875 13.0625 8.265625 
Q 6.59375 17.96875 6.59375 36.375 
Q 6.59375 54.828125 13.0625 64.515625 
Q 19.53125 74.21875 31.78125 74.21875 
z
" id="DejaVuSans-30"/>
      </defs>
      <g transform="translate(98.260203 527.238438)scale(0.1 -0.1)">
       <use xlink:href="#DejaVuSans-31"/>
       <use x="63.623047" xlink:href="#DejaVuSans-30"/>
       <use x="127.246094" xlink:href="#DejaVuSans-30"/>
       <use x="190.869141" xlink:href="#DejaVuSans-30"/>
      </g>
     </g>
    </g>
    <g id="xtick_2">
     <g id="line2d_2">
      <g>
       <use style="stroke:#000000;stroke-width:0.8;" x="215.233606" xlink:href="#m1550e131e6" y="512.64"/>
      </g>
     </g>
     <g id="text_2">
      <!-- 1500 -->
      <defs>
       <path d="M 10.796875 72.90625 
L 49.515625 72.90625 
L 49.515625 64.59375 
L 19.828125 64.59375 
L 19.828125 46.734375 
Q 21.96875 47.46875 24.109375 47.828125 
Q 26.265625 48.1875 28.421875 48.1875 
Q 40.625 48.1875 47.75 41.5 
Q 54.890625 34.8125 54.890625 23.390625 
Q 54.890625 11.625 47.5625 5.09375 
Q 40.234375 -1.421875 26.90625 -1.421875 
Q 22.3125 -1.421875 17.546875 -0.640625 
Q 12.796875 0.140625 7.71875 1.703125 
L 7.71875 11.625 
Q 12.109375 9.234375 16.796875 8.0625 
Q 21.484375 6.890625 26.703125 6.890625 
Q 35.15625 6.890625 40.078125 11.328125 
Q 45.015625 15.765625 45.015625 23.390625 
Q 45.015625 31 40.078125 35.4375 
Q 35.15625 39.890625 26.703125 39.890625 
Q 22.75 39.890625 18.8125 39.015625 
Q 14.890625 38.140625 10.796875 36.28125 
z
" id="DejaVuSans-35"/>
      </defs>
      <g transform="translate(202.508606 527.238438)scale(0.1 -0.1)">
       <use xlink:href="#DejaVuSans-31"/>
       <use x="63.623047" xlink:href="#DejaVuSans-35"/>
       <use x="127.246094" xlink:href="#DejaVuSans-30"/>
       <use x="190.869141" xlink:href="#DejaVuSans-30"/>
      </g>
     </g>
    </g>
    <g id="xtick_3">
     <g id="line2d_3">
      <g>
       <use style="stroke:#000000;stroke-width:0.8;" x="319.482009" xlink:href="#m1550e131e6" y="512.64"/>
      </g>
     </g>
     <g id="text_3">
      <!-- 2000 -->
      <defs>
       <path d="M 19.1875 8.296875 
L 53.609375 8.296875 
L 53.609375 0 
L 7.328125 0 
L 7.328125 8.296875 
Q 12.9375 14.109375 22.625 23.890625 
Q 32.328125 33.6875 34.8125 36.53125 
Q 39.546875 41.84375 41.421875 45.53125 
Q 43.3125 49.21875 43.3125 52.78125 
Q 43.3125 58.59375 39.234375 62.25 
Q 35.15625 65.921875 28.609375 65.921875 
Q 23.96875 65.921875 18.8125 64.3125 
Q 13.671875 62.703125 7.8125 59.421875 
L 7.8125 69.390625 
Q 13.765625 71.78125 18.9375 73 
Q 24.125 74.21875 28.421875 74.21875 
Q 39.75 74.21875 46.484375 68.546875 
Q 53.21875 62.890625 53.21875 53.421875 
Q 53.21875 48.921875 51.53125 44.890625 
Q 49.859375 40.875 45.40625 35.40625 
Q 44.1875 33.984375 37.640625 27.21875 
Q 31.109375 20.453125 19.1875 8.296875 
z
" id="DejaVuSans-32"/>
      </defs>
      <g transform="translate(306.757009 527.238438)scale(0.1 -0.1)">
       <use xlink:href="#DejaVuSans-32"/>
       <use x="63.623047" xlink:href="#DejaVuSans-30"/>
       <use x="127.246094" xlink:href="#DejaVuSans-30"/>
       <use x="190.869141" xlink:href="#DejaVuSans-30"/>
      </g>
     </g>
    </g>
    <g id="xtick_4">
     <g id="line2d_4">
      <g>
       <use style="stroke:#000000;stroke-width:0.8;" x="423.730411" xlink:href="#m1550e131e6" y="512.64"/>
      </g>
     </g>
     <g id="text_4">
      <!-- 2500 -->
      <g transform="translate(411.005411 527.238438)scale(0.1 -0.1)">
       <use xlink:href="#DejaVuSans-32"/>
       <use x="63.623047" xlink:href="#DejaVuSans-35"/>
       <use x="127.246094" xlink:href="#DejaVuSans-30"/>
       <use x="190.869141" xlink:href="#DejaVuSans-30"/>
      </g>
     </g>
    </g>
    <g id="xtick_5">
     <g id="line2d_5">
      <g>
       <use style="stroke:#000000;stroke-width:0.8;" x="527.978814" xlink:href="#m1550e131e6" y="512.64"/>
      </g>
     </g>
     <g id="text_5">
      <!-- 3000 -->
      <defs>
       <path d="M 40.578125 39.3125 
Q 47.65625 37.796875 51.625 33 
Q 55.609375 28.21875 55.609375 21.1875 
Q 55.609375 10.40625 48.1875 4.484375 
Q 40.765625 -1.421875 27.09375 -1.421875 
Q 22.515625 -1.421875 17.65625 -0.515625 
Q 12.796875 0.390625 7.625 2.203125 
L 7.625 11.71875 
Q 11.71875 9.328125 16.59375 8.109375 
Q 21.484375 6.890625 26.8125 6.890625 
Q 36.078125 6.890625 40.9375 10.546875 
Q 45.796875 14.203125 45.796875 21.1875 
Q 45.796875 27.640625 41.28125 31.265625 
Q 36.765625 34.90625 28.71875 34.90625 
L 20.21875 34.90625 
L 20.21875 43.015625 
L 29.109375 43.015625 
Q 36.375 43.015625 40.234375 45.921875 
Q 44.09375 48.828125 44.09375 54.296875 
Q 44.09375 59.90625 40.109375 62.90625 
Q 36.140625 65.921875 28.71875 65.921875 
Q 24.65625 65.921875 20.015625 65.03125 
Q 15.375 64.15625 9.8125 62.3125 
L 9.8125 71.09375 
Q 15.4375 72.65625 20.34375 73.4375 
Q 25.25 74.21875 29.59375 74.21875 
Q 40.828125 74.21875 47.359375 69.109375 
Q 53.90625 64.015625 53.90625 55.328125 
Q 53.90625 49.265625 50.4375 45.09375 
Q 46.96875 40.921875 40.578125 39.3125 
z
" id="DejaVuSans-33"/>
      </defs>
      <g transform="translate(515.253814 527.238438)scale(0.1 -0.1)">
       <use xlink:href="#DejaVuSans-33"/>
       <use x="63.623047" xlink:href="#DejaVuSans-30"/>
       <use x="127.246094" xlink:href="#DejaVuSans-30"/>
       <use x="190.869141" xlink:href="#DejaVuSans-30"/>
      </g>
     </g>
    </g>
    <g id="xtick_6">
     <g id="line2d_6">
      <g>
       <use style="stroke:#000000;stroke-width:0.8;" x="632.227217" xlink:href="#m1550e131e6" y="512.64"/>
      </g>
     </g>
     <g id="text_6">
      <!-- 3500 -->
      <g transform="translate(619.502217 527.238438)scale(0.1 -0.1)">
       <use xlink:href="#DejaVuSans-33"/>
       <use x="63.623047" xlink:href="#DejaVuSans-35"/>
       <use x="127.246094" xlink:href="#DejaVuSans-30"/>
       <use x="190.869141" xlink:href="#DejaVuSans-30"/>
      </g>
     </g>
    </g>
    <g id="text_7">
     <!-- Size (sq.ft) -->
     <defs>
      <path d="M 53.515625 70.515625 
L 53.515625 60.890625 
Q 47.90625 63.578125 42.921875 64.890625 
Q 37.9375 66.21875 33.296875 66.21875 
Q 25.25 66.21875 20.875 63.09375 
Q 16.5 59.96875 16.5 54.203125 
Q 16.5 49.359375 19.40625 46.890625 
Q 22.3125 44.4375 30.421875 42.921875 
L 36.375 41.703125 
Q 47.40625 39.59375 52.65625 34.296875 
Q 57.90625 29 57.90625 20.125 
Q 57.90625 9.515625 50.796875 4.046875 
Q 43.703125 -1.421875 29.984375 -1.421875 
Q 24.8125 -1.421875 18.96875 -0.25 
Q 13.140625 0.921875 6.890625 3.21875 
L 6.890625 13.375 
Q 12.890625 10.015625 18.65625 8.296875 
Q 24.421875 6.59375 29.984375 6.59375 
Q 38.421875 6.59375 43.015625 9.90625 
Q 47.609375 13.234375 47.609375 19.390625 
Q 47.609375 24.75 44.3125 27.78125 
Q 41.015625 30.8125 33.5 32.328125 
L 27.484375 33.5 
Q 16.453125 35.6875 11.515625 40.375 
Q 6.59375 45.0625 6.59375 53.421875 
Q 6.59375 63.09375 13.40625 68.65625 
Q 20.21875 74.21875 32.171875 74.21875 
Q 37.3125 74.21875 42.625 73.28125 
Q 47.953125 72.359375 53.515625 70.515625 
z
" id="DejaVuSans-53"/>
      <path d="M 9.421875 54.6875 
L 18.40625 54.6875 
L 18.40625 0 
L 9.421875 0 
z
M 9.421875 75.984375 
L 18.40625 75.984375 
L 18.40625 64.59375 
L 9.421875 64.59375 
z
" id="DejaVuSans-69"/>
      <path d="M 5.515625 54.6875 
L 48.1875 54.6875 
L 48.1875 46.484375 
L 14.40625 7.171875 
L 48.1875 7.171875 
L 48.1875 0 
L 4.296875 0 
L 4.296875 8.203125 
L 38.09375 47.515625 
L 5.515625 47.515625 
z
" id="DejaVuSans-7a"/>
      <path d="M 56.203125 29.59375 
L 56.203125 25.203125 
L 14.890625 25.203125 
Q 15.484375 15.921875 20.484375 11.0625 
Q 25.484375 6.203125 34.421875 6.203125 
Q 39.59375 6.203125 44.453125 7.46875 
Q 49.3125 8.734375 54.109375 11.28125 
L 54.109375 2.78125 
Q 49.265625 0.734375 44.1875 -0.34375 
Q 39.109375 -1.421875 33.890625 -1.421875 
Q 20.796875 -1.421875 13.15625 6.1875 
Q 5.515625 13.8125 5.515625 26.8125 
Q 5.515625 40.234375 12.765625 48.109375 
Q 20.015625 56 32.328125 56 
Q 43.359375 56 49.78125 48.890625 
Q 56.203125 41.796875 56.203125 29.59375 
z
M 47.21875 32.234375 
Q 47.125 39.59375 43.09375 43.984375 
Q 39.0625 48.390625 32.421875 48.390625 
Q 24.90625 48.390625 20.390625 44.140625 
Q 15.875 39.890625 15.1875 32.171875 
z
" id="DejaVuSans-65"/>
      <path id="DejaVuSans-20"/>
      <path d="M 31 75.875 
Q 24.46875 64.65625 21.28125 53.65625 
Q 18.109375 42.671875 18.109375 31.390625 
Q 18.109375 20.125 21.3125 9.0625 
Q 24.515625 -2 31 -13.1875 
L 23.1875 -13.1875 
Q 15.875 -1.703125 12.234375 9.375 
Q 8.59375 20.453125 8.59375 31.390625 
Q 8.59375 42.28125 12.203125 53.3125 
Q 15.828125 64.359375 23.1875 75.875 
z
" id="DejaVuSans-28"/>
      <path d="M 44.28125 53.078125 
L 44.28125 44.578125 
Q 40.484375 46.53125 36.375 47.5 
Q 32.28125 48.484375 27.875 48.484375 
Q 21.1875 48.484375 17.84375 46.4375 
Q 14.5 44.390625 14.5 40.28125 
Q 14.5 37.15625 16.890625 35.375 
Q 19.28125 33.59375 26.515625 31.984375 
L 29.59375 31.296875 
Q 39.15625 29.25 43.1875 25.515625 
Q 47.21875 21.78125 47.21875 15.09375 
Q 47.21875 7.46875 41.1875 3.015625 
Q 35.15625 -1.421875 24.609375 -1.421875 
Q 20.21875 -1.421875 15.453125 -0.5625 
Q 10.6875 0.296875 5.421875 2 
L 5.421875 11.28125 
Q 10.40625 8.6875 15.234375 7.390625 
Q 20.0625 6.109375 24.8125 6.109375 
Q 31.15625 6.109375 34.5625 8.28125 
Q 37.984375 10.453125 37.984375 14.40625 
Q 37.984375 18.0625 35.515625 20.015625 
Q 33.0625 21.96875 24.703125 23.78125 
L 21.578125 24.515625 
Q 13.234375 26.265625 9.515625 29.90625 
Q 5.8125 33.546875 5.8125 39.890625 
Q 5.8125 47.609375 11.28125 51.796875 
Q 16.75 56 26.8125 56 
Q 31.78125 56 36.171875 55.265625 
Q 40.578125 54.546875 44.28125 53.078125 
z
" id="DejaVuSans-73"/>
      <path d="M 14.796875 27.296875 
Q 14.796875 17.390625 18.875 11.75 
Q 22.953125 6.109375 30.078125 6.109375 
Q 37.203125 6.109375 41.296875 11.75 
Q 45.40625 17.390625 45.40625 27.296875 
Q 45.40625 37.203125 41.296875 42.84375 
Q 37.203125 48.484375 30.078125 48.484375 
Q 22.953125 48.484375 18.875 42.84375 
Q 14.796875 37.203125 14.796875 27.296875 
z
M 45.40625 8.203125 
Q 42.578125 3.328125 38.25 0.953125 
Q 33.9375 -1.421875 27.875 -1.421875 
Q 17.96875 -1.421875 11.734375 6.484375 
Q 5.515625 14.40625 5.515625 27.296875 
Q 5.515625 40.1875 11.734375 48.09375 
Q 17.96875 56 27.875 56 
Q 33.9375 56 38.25 53.625 
Q 42.578125 51.265625 45.40625 46.390625 
L 45.40625 54.6875 
L 54.390625 54.6875 
L 54.390625 -20.796875 
L 45.40625 -20.796875 
z
" id="DejaVuSans-71"/>
      <path d="M 10.6875 12.40625 
L 21 12.40625 
L 21 0 
L 10.6875 0 
z
" id="DejaVuSans-2e"/>
      <path d="M 37.109375 75.984375 
L 37.109375 68.5 
L 28.515625 68.5 
Q 23.6875 68.5 21.796875 66.546875 
Q 19.921875 64.59375 19.921875 59.515625 
L 19.921875 54.6875 
L 34.71875 54.6875 
L 34.71875 47.703125 
L 19.921875 47.703125 
L 19.921875 0 
L 10.890625 0 
L 10.890625 47.703125 
L 2.296875 47.703125 
L 2.296875 54.6875 
L 10.890625 54.6875 
L 10.890625 58.5 
Q 10.890625 67.625 15.140625 71.796875 
Q 19.390625 75.984375 28.609375 75.984375 
z
" id="DejaVuSans-66"/>
      <path d="M 18.3125 70.21875 
L 18.3125 54.6875 
L 36.8125 54.6875 
L 36.8125 47.703125 
L 18.3125 47.703125 
L 18.3125 18.015625 
Q 18.3125 11.328125 20.140625 9.421875 
Q 21.96875 7.515625 27.59375 7.515625 
L 36.8125 7.515625 
L 36.8125 0 
L 27.59375 0 
Q 17.1875 0 13.234375 3.875 
Q 9.28125 7.765625 9.28125 18.015625 
L 9.28125 47.703125 
L 2.6875 47.703125 
L 2.6875 54.6875 
L 9.28125 54.6875 
L 9.28125 70.21875 
z
" id="DejaVuSans-74"/>
      <path d="M 8.015625 75.875 
L 15.828125 75.875 
Q 23.140625 64.359375 26.78125 53.3125 
Q 30.421875 42.28125 30.421875 31.390625 
Q 30.421875 20.453125 26.78125 9.375 
Q 23.140625 -1.703125 15.828125 -13.1875 
L 8.015625 -13.1875 
Q 14.5 -2 17.703125 9.0625 
Q 20.90625 20.125 20.90625 31.390625 
Q 20.90625 42.671875 17.703125 53.65625 
Q 14.5 64.65625 8.015625 75.875 
z
" id="DejaVuSans-29"/>
     </defs>
     <g transform="translate(342.157812 540.916563)scale(0.1 -0.1)">
      <use xlink:href="#DejaVuSans-53"/>
      <use x="63.476562" xlink:href="#DejaVuSans-69"/>
      <use x="91.259766" xlink:href="#DejaVuSans-7a"/>
      <use x="143.75" xlink:href="#DejaVuSans-65"/>
      <use x="205.273438" xlink:href="#DejaVuSans-20"/>
      <use x="237.060547" xlink:href="#DejaVuSans-28"/>
      <use x="276.074219" xlink:href="#DejaVuSans-73"/>
      <use x="328.173828" xlink:href="#DejaVuSans-71"/>
      <use x="391.650391" xlink:href="#DejaVuSans-2e"/>
      <use x="423.4375" xlink:href="#DejaVuSans-66"/>
      <use x="458.626953" xlink:href="#DejaVuSans-74"/>
      <use x="497.835938" xlink:href="#DejaVuSans-29"/>
     </g>
    </g>
   </g>
   <g id="matplotlib.axis_2">
    <g id="ytick_1">
     <g id="line2d_7">
      <defs>
       <path d="M 0 0 
L -3.5 0 
" id="mec663faac7" style="stroke:#000000;stroke-width:0.8;"/>
      </defs>
      <g>
       <use style="stroke:#000000;stroke-width:0.8;" x="90" xlink:href="#mec663faac7" y="457.186795"/>
      </g>
     </g>
     <g id="text_8">
      <!-- 150000 -->
      <g transform="translate(44.825 460.986014)scale(0.1 -0.1)">
       <use xlink:href="#DejaVuSans-31"/>
       <use x="63.623047" xlink:href="#DejaVuSans-35"/>
       <use x="127.246094" xlink:href="#DejaVuSans-30"/>
       <use x="190.869141" xlink:href="#DejaVuSans-30"/>
       <use x="254.492188" xlink:href="#DejaVuSans-30"/>
       <use x="318.115234" xlink:href="#DejaVuSans-30"/>
      </g>
     </g>
    </g>
    <g id="ytick_2">
     <g id="line2d_8">
      <g>
       <use style="stroke:#000000;stroke-width:0.8;" x="90" xlink:href="#mec663faac7" y="383.622503"/>
      </g>
     </g>
     <g id="text_9">
      <!-- 200000 -->
      <g transform="translate(44.825 387.421722)scale(0.1 -0.1)">
       <use xlink:href="#DejaVuSans-32"/>
       <use x="63.623047" xlink:href="#DejaVuSans-30"/>
       <use x="127.246094" xlink:href="#DejaVuSans-30"/>
       <use x="190.869141" xlink:href="#DejaVuSans-30"/>
       <use x="254.492188" xlink:href="#DejaVuSans-30"/>
       <use x="318.115234" xlink:href="#DejaVuSans-30"/>
      </g>
     </g>
    </g>
    <g id="ytick_3">
     <g id="line2d_9">
      <g>
       <use style="stroke:#000000;stroke-width:0.8;" x="90" xlink:href="#mec663faac7" y="310.058211"/>
      </g>
     </g>
     <g id="text_10">
      <!-- 250000 -->
      <g transform="translate(44.825 313.85743)scale(0.1 -0.1)">
       <use xlink:href="#DejaVuSans-32"/>
       <use x="63.623047" xlink:href="#DejaVuSans-35"/>
       <use x="127.246094" xlink:href="#DejaVuSans-30"/>
       <use x="190.869141" xlink:href="#DejaVuSans-30"/>
       <use x="254.492188" xlink:href="#DejaVuSans-30"/>
       <use x="318.115234" xlink:href="#DejaVuSans-30"/>
      </g>
     </g>
    </g>
    <g id="ytick_4">
     <g id="line2d_10">
      <g>
       <use style="stroke:#000000;stroke-width:0.8;" x="90" xlink:href="#mec663faac7" y="236.493919"/>
      </g>
     </g>
     <g id="text_11">
      <!-- 300000 -->
      <g transform="translate(44.825 240.293138)scale(0.1 -0.1)">
       <use xlink:href="#DejaVuSans-33"/>
       <use x="63.623047" xlink:href="#DejaVuSans-30"/>
       <use x="127.246094" xlink:href="#DejaVuSans-30"/>
       <use x="190.869141" xlink:href="#DejaVuSans-30"/>
       <use x="254.492188" xlink:href="#DejaVuSans-30"/>
       <use x="318.115234" xlink:href="#DejaVuSans-30"/>
      </g>
     </g>
    </g>
    <g id="ytick_5">
     <g id="line2d_11">
      <g>
       <use style="stroke:#000000;stroke-width:0.8;" x="90" xlink:href="#mec663faac7" y="162.929627"/>
      </g>
     </g>
     <g id="text_12">
      <!-- 350000 -->
      <g transform="translate(44.825 166.728845)scale(0.1 -0.1)">
       <use xlink:href="#DejaVuSans-33"/>
       <use x="63.623047" xlink:href="#DejaVuSans-35"/>
       <use x="127.246094" xlink:href="#DejaVuSans-30"/>
       <use x="190.869141" xlink:href="#DejaVuSans-30"/>
       <use x="254.492188" xlink:href="#DejaVuSans-30"/>
       <use x="318.115234" xlink:href="#DejaVuSans-30"/>
      </g>
     </g>
    </g>
    <g id="ytick_6">
     <g id="line2d_12">
      <g>
       <use style="stroke:#000000;stroke-width:0.8;" x="90" xlink:href="#mec663faac7" y="89.365335"/>
      </g>
     </g>
     <g id="text_13">
      <!-- 400000 -->
      <defs>
       <path d="M 37.796875 64.3125 
L 12.890625 25.390625 
L 37.796875 25.390625 
z
M 35.203125 72.90625 
L 47.609375 72.90625 
L 47.609375 25.390625 
L 58.015625 25.390625 
L 58.015625 17.1875 
L 47.609375 17.1875 
L 47.609375 0 
L 37.796875 0 
L 37.796875 17.1875 
L 4.890625 17.1875 
L 4.890625 26.703125 
z
" id="DejaVuSans-34"/>
      </defs>
      <g transform="translate(44.825 93.164553)scale(0.1 -0.1)">
       <use xlink:href="#DejaVuSans-34"/>
       <use x="63.623047" xlink:href="#DejaVuSans-30"/>
       <use x="127.246094" xlink:href="#DejaVuSans-30"/>
       <use x="190.869141" xlink:href="#DejaVuSans-30"/>
       <use x="254.492188" xlink:href="#DejaVuSans-30"/>
       <use x="318.115234" xlink:href="#DejaVuSans-30"/>
      </g>
     </g>
    </g>
    <g id="text_14">
     <!-- Price -->
     <defs>
      <path d="M 19.671875 64.796875 
L 19.671875 37.40625 
L 32.078125 37.40625 
Q 38.96875 37.40625 42.71875 40.96875 
Q 46.484375 44.53125 46.484375 51.125 
Q 46.484375 57.671875 42.71875 61.234375 
Q 38.96875 64.796875 32.078125 64.796875 
z
M 9.8125 72.90625 
L 32.078125 72.90625 
Q 44.34375 72.90625 50.609375 67.359375 
Q 56.890625 61.8125 56.890625 51.125 
Q 56.890625 40.328125 50.609375 34.8125 
Q 44.34375 29.296875 32.078125 29.296875 
L 19.671875 29.296875 
L 19.671875 0 
L 9.8125 0 
z
" id="DejaVuSans-50"/>
      <path d="M 41.109375 46.296875 
Q 39.59375 47.171875 37.8125 47.578125 
Q 36.03125 48 33.890625 48 
Q 26.265625 48 22.1875 43.046875 
Q 18.109375 38.09375 18.109375 28.8125 
L 18.109375 0 
L 9.078125 0 
L 9.078125 54.6875 
L 18.109375 54.6875 
L 18.109375 46.1875 
Q 20.953125 51.171875 25.484375 53.578125 
Q 30.03125 56 36.53125 56 
Q 37.453125 56 38.578125 55.875 
Q 39.703125 55.765625 41.0625 55.515625 
z
" id="DejaVuSans-72"/>
      <path d="M 48.78125 52.59375 
L 48.78125 44.1875 
Q 44.96875 46.296875 41.140625 47.34375 
Q 37.3125 48.390625 33.40625 48.390625 
Q 24.65625 48.390625 19.8125 42.84375 
Q 14.984375 37.3125 14.984375 27.296875 
Q 14.984375 17.28125 19.8125 11.734375 
Q 24.65625 6.203125 33.40625 6.203125 
Q 37.3125 6.203125 41.140625 7.25 
Q 44.96875 8.296875 48.78125 10.40625 
L 48.78125 2.09375 
Q 45.015625 0.34375 40.984375 -0.53125 
Q 36.96875 -1.421875 32.421875 -1.421875 
Q 20.0625 -1.421875 12.78125 6.34375 
Q 5.515625 14.109375 5.515625 27.296875 
Q 5.515625 40.671875 12.859375 48.328125 
Q 20.21875 56 33.015625 56 
Q 37.15625 56 41.109375 55.140625 
Q 45.0625 54.296875 48.78125 52.59375 
z
" id="DejaVuSans-63"/>
     </defs>
     <g transform="translate(38.745312 303.164375)rotate(-90)scale(0.1 -0.1)">
      <use xlink:href="#DejaVuSans-50"/>
      <use x="60.287109" xlink:href="#DejaVuSans-72"/>
      <use x="101.400391" xlink:href="#DejaVuSans-69"/>
      <use x="129.183594" xlink:href="#DejaVuSans-63"/>
      <use x="184.164062" xlink:href="#DejaVuSans-65"/>
     </g>
    </g>
   </g>
   <g id="line2d_13">
    <defs>
     <path d="M 0 3 
C 0.795609 3 1.55874 2.683901 2.12132 2.12132 
C 2.683901 1.55874 3 0.795609 3 0 
C 3 -0.795609 2.683901 -1.55874 2.12132 -2.12132 
C 1.55874 -2.683901 0.795609 -3 0 -3 
C -0.795609 -3 -1.55874 -2.683901 -2.12132 -2.12132 
C -2.683901 -1.55874 -3 -0.795609 -3 0 
C -3 0.795609 -2.683901 1.55874 -2.12132 2.12132 
C -1.55874 2.683901 -0.795609 3 0 3 
z
" id="m6f895a22dc" style="stroke:#008000;"/>
    </defs>
    <g clip-path="url(#p8dc986829d)">
     <use style="fill:#008000;stroke:#008000;" x="290.292456" xlink:href="#m6f895a22dc" y="351.555828"/>
     <use style="fill:#008000;stroke:#008000;" x="380.780069" xlink:href="#m6f895a22dc" y="309.675677"/>
     <use style="fill:#008000;stroke:#008000;" x="346.586593" xlink:href="#m6f895a22dc" y="278.928745"/>
     <use style="fill:#008000;stroke:#008000;" x="339.289205" xlink:href="#m6f895a22dc" y="274.406012"/>
     <use style="fill:#008000;stroke:#008000;" x="452.502971" xlink:href="#m6f895a22dc" y="243.72676"/>
     <use style="fill:#008000;stroke:#008000;" x="563.214774" xlink:href="#m6f895a22dc" y="172.985865"/>
     <use style="fill:#008000;stroke:#008000;" x="208.144715" xlink:href="#m6f895a22dc" y="407.972284"/>
     <use style="fill:#008000;stroke:#008000;" x="369.104248" xlink:href="#m6f895a22dc" y="264.457178"/>
     <use style="fill:#008000;stroke:#008000;" x="179.789149" xlink:href="#m6f895a22dc" y="420.460558"/>
     <use style="fill:#008000;stroke:#008000;" x="419.977469" xlink:href="#m6f895a22dc" y="213.849358"/>
     <use style="fill:#008000;stroke:#008000;" x="556.125883" xlink:href="#m6f895a22dc" y="122.276528"/>
     <use style="fill:#008000;stroke:#008000;" x="138.089788" xlink:href="#m6f895a22dc" y="458.624241"/>
     <use style="fill:#008000;stroke:#008000;" x="462.30232" xlink:href="#m6f895a22dc" y="192.958571"/>
     <use style="fill:#008000;stroke:#008000;" x="271.319247" xlink:href="#m6f895a22dc" y="385.704373"/>
     <use style="fill:#008000;stroke:#008000;" x="609.501065" xlink:href="#m6f895a22dc" y="148.409507"/>
     <use style="fill:#008000;stroke:#008000;" x="426.857863" xlink:href="#m6f895a22dc" y="274.845927"/>
     <use style="fill:#008000;stroke:#008000;" x="618.257931" xlink:href="#m6f895a22dc" y="135.547526"/>
     <use style="fill:#008000;stroke:#008000;" x="364.308822" xlink:href="#m6f895a22dc" y="266.921581"/>
     <use style="fill:#008000;stroke:#008000;" x="310.099653" xlink:href="#m6f895a22dc" y="303.160823"/>
     <use style="fill:#008000;stroke:#008000;" x="595.531779" xlink:href="#m6f895a22dc" y="133.550991"/>
     <use style="fill:#008000;stroke:#008000;" x="357.845421" xlink:href="#m6f895a22dc" y="298.039277"/>
     <use style="fill:#008000;stroke:#008000;" x="206.685237" xlink:href="#m6f895a22dc" y="391.577746"/>
     <use style="fill:#008000;stroke:#008000;" x="115.363636" xlink:href="#m6f895a22dc" y="488.825326"/>
     <use style="fill:#008000;stroke:#008000;" x="590.527856" xlink:href="#m6f895a22dc" y="122.498692"/>
     <use style="fill:#008000;stroke:#008000;" x="266.732317" xlink:href="#m6f895a22dc" y="330.45906"/>
     <use style="fill:#008000;stroke:#008000;" x="209.812689" xlink:href="#m6f895a22dc" y="393.836169"/>
     <use style="fill:#008000;stroke:#008000;" x="336.578747" xlink:href="#m6f895a22dc" y="314.263146"/>
     <use style="fill:#008000;stroke:#008000;" x="537.778164" xlink:href="#m6f895a22dc" y="173.035889"/>
     <use style="fill:#008000;stroke:#008000;" x="314.269589" xlink:href="#m6f895a22dc" y="353.833379"/>
     <use style="fill:#008000;stroke:#008000;" x="487.530434" xlink:href="#m6f895a22dc" y="235.333074"/>
     <use style="fill:#008000;stroke:#008000;" x="150.3911" xlink:href="#m6f895a22dc" y="445.390025"/>
     <use style="fill:#008000;stroke:#008000;" x="228.160408" xlink:href="#m6f895a22dc" y="366.006798"/>
     <use style="fill:#008000;stroke:#008000;" x="506.920637" xlink:href="#m6f895a22dc" y="219.134217"/>
     <use style="fill:#008000;stroke:#008000;" x="375.150656" xlink:href="#m6f895a22dc" y="313.049335"/>
     <use style="fill:#008000;stroke:#008000;" x="429.568322" xlink:href="#m6f895a22dc" y="230.092354"/>
     <use style="fill:#008000;stroke:#008000;" x="245.67414" xlink:href="#m6f895a22dc" y="389.516474"/>
     <use style="fill:#008000;stroke:#008000;" x="542.156597" xlink:href="#m6f895a22dc" y="191.831566"/>
     <use style="fill:#008000;stroke:#008000;" x="572.59713" xlink:href="#m6f895a22dc" y="169.859383"/>
     <use style="fill:#008000;stroke:#008000;" x="381.40556" xlink:href="#m6f895a22dc" y="249.285278"/>
     <use style="fill:#008000;stroke:#008000;" x="618.674924" xlink:href="#m6f895a22dc" y="97.839941"/>
     <use style="fill:#008000;stroke:#008000;" x="236.083287" xlink:href="#m6f895a22dc" y="391.711633"/>
     <use style="fill:#008000;stroke:#008000;" x="603.663154" xlink:href="#m6f895a22dc" y="121.620334"/>
     <use style="fill:#008000;stroke:#008000;" x="540.697119" xlink:href="#m6f895a22dc" y="182.458004"/>
     <use style="fill:#008000;stroke:#008000;" x="161.232934" xlink:href="#m6f895a22dc" y="452.931837"/>
     <use style="fill:#008000;stroke:#008000;" x="536.527183" xlink:href="#m6f895a22dc" y="137.295413"/>
     <use style="fill:#008000;stroke:#008000;" x="395.166349" xlink:href="#m6f895a22dc" y="237.492922"/>
     <use style="fill:#008000;stroke:#008000;" x="556.95987" xlink:href="#m6f895a22dc" y="174.209975"/>
     <use style="fill:#008000;stroke:#008000;" x="400.795763" xlink:href="#m6f895a22dc" y="233.549876"/>
     <use style="fill:#008000;stroke:#008000;" x="419.143482" xlink:href="#m6f895a22dc" y="267.661638"/>
     <use style="fill:#008000;stroke:#008000;" x="272.570228" xlink:href="#m6f895a22dc" y="352.1414"/>
     <use style="fill:#008000;stroke:#008000;" x="118.074095" xlink:href="#m6f895a22dc" y="492.48"/>
     <use style="fill:#008000;stroke:#008000;" x="580.728506" xlink:href="#m6f895a22dc" y="135.294465"/>
     <use style="fill:#008000;stroke:#008000;" x="518.596458" xlink:href="#m6f895a22dc" y="142.250704"/>
     <use style="fill:#008000;stroke:#008000;" x="441.45264" xlink:href="#m6f895a22dc" y="242.880771"/>
     <use style="fill:#008000;stroke:#008000;" x="323.860442" xlink:href="#m6f895a22dc" y="284.937476"/>
     <use style="fill:#008000;stroke:#008000;" x="346.378097" xlink:href="#m6f895a22dc" y="274.903307"/>
     <use style="fill:#008000;stroke:#008000;" x="423.730411" xlink:href="#m6f895a22dc" y="259.238527"/>
     <use style="fill:#008000;stroke:#008000;" x="257.349961" xlink:href="#m6f895a22dc" y="345.192517"/>
     <use style="fill:#008000;stroke:#008000;" x="621.59388" xlink:href="#m6f895a22dc" y="101.972783"/>
     <use style="fill:#008000;stroke:#008000;" x="440.201659" xlink:href="#m6f895a22dc" y="266.677348"/>
     <use style="fill:#008000;stroke:#008000;" x="144.553189" xlink:href="#m6f895a22dc" y="471.836388"/>
     <use style="fill:#008000;stroke:#008000;" x="152.893061" xlink:href="#m6f895a22dc" y="436.531413"/>
     <use style="fill:#008000;stroke:#008000;" x="524.017375" xlink:href="#m6f895a22dc" y="181.236836"/>
     <use style="fill:#008000;stroke:#008000;" x="318.439525" xlink:href="#m6f895a22dc" y="353.430246"/>
     <use style="fill:#008000;stroke:#008000;" x="594.072301" xlink:href="#m6f895a22dc" y="143.283547"/>
     <use style="fill:#008000;stroke:#008000;" x="280.9101" xlink:href="#m6f895a22dc" y="317.307236"/>
     <use style="fill:#008000;stroke:#008000;" x="205.85125" xlink:href="#m6f895a22dc" y="414.641623"/>
     <use style="fill:#008000;stroke:#008000;" x="376.81863" xlink:href="#m6f895a22dc" y="253.771228"/>
     <use style="fill:#008000;stroke:#008000;" x="322.817958" xlink:href="#m6f895a22dc" y="337.583026"/>
     <use style="fill:#008000;stroke:#008000;" x="599.493218" xlink:href="#m6f895a22dc" y="89.28"/>
     <use style="fill:#008000;stroke:#008000;" x="181.248627" xlink:href="#m6f895a22dc" y="441.63089"/>
     <use style="fill:#008000;stroke:#008000;" x="294.045398" xlink:href="#m6f895a22dc" y="363.796926"/>
     <use style="fill:#008000;stroke:#008000;" x="335.327766" xlink:href="#m6f895a22dc" y="342.778137"/>
     <use style="fill:#008000;stroke:#008000;" x="275.906176" xlink:href="#m6f895a22dc" y="330.413451"/>
     <use style="fill:#008000;stroke:#008000;" x="583.021971" xlink:href="#m6f895a22dc" y="129.153318"/>
     <use style="fill:#008000;stroke:#008000;" x="270.068266" xlink:href="#m6f895a22dc" y="339.391237"/>
     <use style="fill:#008000;stroke:#008000;" x="576.975563" xlink:href="#m6f895a22dc" y="124.520239"/>
     <use style="fill:#008000;stroke:#008000;" x="190.005493" xlink:href="#m6f895a22dc" y="428.593826"/>
     <use style="fill:#008000;stroke:#008000;" x="213.565632" xlink:href="#m6f895a22dc" y="386.083964"/>
     <use style="fill:#008000;stroke:#008000;" x="357.011434" xlink:href="#m6f895a22dc" y="268.278107"/>
     <use style="fill:#008000;stroke:#008000;" x="540.905616" xlink:href="#m6f895a22dc" y="159.912019"/>
     <use style="fill:#008000;stroke:#008000;" x="124.328999" xlink:href="#m6f895a22dc" y="490.414315"/>
     <use style="fill:#008000;stroke:#008000;" x="396.000336" xlink:href="#m6f895a22dc" y="264.5175"/>
     <use style="fill:#008000;stroke:#008000;" x="351.173523" xlink:href="#m6f895a22dc" y="296.116306"/>
     <use style="fill:#008000;stroke:#008000;" x="533.608228" xlink:href="#m6f895a22dc" y="168.892748"/>
     <use style="fill:#008000;stroke:#008000;" x="422.687927" xlink:href="#m6f895a22dc" y="245.615891"/>
     <use style="fill:#008000;stroke:#008000;" x="353.258491" xlink:href="#m6f895a22dc" y="317.813359"/>
     <use style="fill:#008000;stroke:#008000;" x="428.317341" xlink:href="#m6f895a22dc" y="251.998329"/>
     <use style="fill:#008000;stroke:#008000;" x="192.507454" xlink:href="#m6f895a22dc" y="430.162217"/>
     <use style="fill:#008000;stroke:#008000;" x="465.012779" xlink:href="#m6f895a22dc" y="220.205313"/>
     <use style="fill:#008000;stroke:#008000;" x="198.136868" xlink:href="#m6f895a22dc" y="421.898004"/>
     <use style="fill:#008000;stroke:#008000;" x="598.033741" xlink:href="#m6f895a22dc" y="126.378473"/>
     <use style="fill:#008000;stroke:#008000;" x="189.796996" xlink:href="#m6f895a22dc" y="388.18496"/>
     <use style="fill:#008000;stroke:#008000;" x="485.445466" xlink:href="#m6f895a22dc" y="224.472042"/>
     <use style="fill:#008000;stroke:#008000;" x="585.940926" xlink:href="#m6f895a22dc" y="107.350333"/>
     <use style="fill:#008000;stroke:#008000;" x="546.326533" xlink:href="#m6f895a22dc" y="138.147288"/>
     <use style="fill:#008000;stroke:#008000;" x="565.925233" xlink:href="#m6f895a22dc" y="107.879996"/>
     <use style="fill:#008000;stroke:#008000;" x="152.684565" xlink:href="#m6f895a22dc" y="399.830188"/>
     <use style="fill:#008000;stroke:#008000;" x="499.414752" xlink:href="#m6f895a22dc" y="167.234609"/>
     <use style="fill:#008000;stroke:#008000;" x="273.404215" xlink:href="#m6f895a22dc" y="382.933941"/>
     <use style="fill:#008000;stroke:#008000;" x="215.6506" xlink:href="#m6f895a22dc" y="424.484525"/>
     <use style="fill:#008000;stroke:#008000;" x="622.636364" xlink:href="#m6f895a22dc" y="136.306709"/>
     <use style="fill:#008000;stroke:#008000;" x="476.06311" xlink:href="#m6f895a22dc" y="172.801955"/>
     <use style="fill:#008000;stroke:#008000;" x="278.616635" xlink:href="#m6f895a22dc" y="375.297968"/>
     <use style="fill:#008000;stroke:#008000;" x="558.419348" xlink:href="#m6f895a22dc" y="153.216198"/>
     <use style="fill:#008000;stroke:#008000;" x="506.086649" xlink:href="#m6f895a22dc" y="164.395027"/>
     <use style="fill:#008000;stroke:#008000;" x="438.325188" xlink:href="#m6f895a22dc" y="221.547126"/>
     <use style="fill:#008000;stroke:#008000;" x="311.142137" xlink:href="#m6f895a22dc" y="339.504526"/>
     <use style="fill:#008000;stroke:#008000;" x="420.602959" xlink:href="#m6f895a22dc" y="264.204116"/>
     <use style="fill:#008000;stroke:#008000;" x="325.319919" xlink:href="#m6f895a22dc" y="293.197275"/>
     <use style="fill:#008000;stroke:#008000;" x="215.6506" xlink:href="#m6f895a22dc" y="422.227572"/>
     <use style="fill:#008000;stroke:#008000;" x="193.758435" xlink:href="#m6f895a22dc" y="403.405413"/>
    </g>
   </g>
   <g id="line2d_14">
    <defs>
     <path d="M 0 3 
C 0.795609 3 1.55874 2.683901 2.12132 2.12132 
C 2.683901 1.55874 3 0.795609 3 0 
C 3 -0.795609 2.683901 -1.55874 2.12132 -2.12132 
C 1.55874 -2.683901 0.795609 -3 0 -3 
C -0.795609 -3 -1.55874 -2.683901 -2.12132 -2.12132 
C -2.683901 -1.55874 -3 -0.795609 -3 0 
C -3 0.795609 -2.683901 1.55874 -2.12132 2.12132 
C -1.55874 2.683901 -0.795609 3 0 3 
z
" id="m3e40e5e941" style="stroke:#bf00bf;"/>
    </defs>
    <g clip-path="url(#p8dc986829d)">
     <use style="fill:#bf00bf;stroke:#bf00bf;" x="292.377424" xlink:href="#m3e40e5e941" y="316.013976"/>
     <use style="fill:#bf00bf;stroke:#bf00bf;" x="192.715951" xlink:href="#m3e40e5e941" y="410.308686"/>
     <use style="fill:#bf00bf;stroke:#bf00bf;" x="153.935545" xlink:href="#m3e40e5e941" y="458.669851"/>
     <use style="fill:#bf00bf;stroke:#bf00bf;" x="327.404887" xlink:href="#m3e40e5e941" y="303.680187"/>
     <use style="fill:#bf00bf;stroke:#bf00bf;" x="503.167694" xlink:href="#m3e40e5e941" y="205.351211"/>
     <use style="fill:#bf00bf;stroke:#bf00bf;" x="420.394463" xlink:href="#m3e40e5e941" y="212.316279"/>
     <use style="fill:#bf00bf;stroke:#bf00bf;" x="290.917946" xlink:href="#m3e40e5e941" y="339.632528"/>
     <use style="fill:#bf00bf;stroke:#bf00bf;" x="228.368905" xlink:href="#m3e40e5e941" y="366.670348"/>
     <use style="fill:#bf00bf;stroke:#bf00bf;" x="323.651945" xlink:href="#m3e40e5e941" y="333.838604"/>
     <use style="fill:#bf00bf;stroke:#bf00bf;" x="130.7924" xlink:href="#m3e40e5e941" y="466.692773"/>
     <use style="fill:#bf00bf;stroke:#bf00bf;" x="511.92456" xlink:href="#m3e40e5e941" y="173.055016"/>
     <use style="fill:#bf00bf;stroke:#bf00bf;" x="477.31409" xlink:href="#m3e40e5e941" y="214.696819"/>
     <use style="fill:#bf00bf;stroke:#bf00bf;" x="585.940926" xlink:href="#m3e40e5e941" y="150.033806"/>
     <use style="fill:#bf00bf;stroke:#bf00bf;" x="460.842843" xlink:href="#m3e40e5e941" y="218.341194"/>
     <use style="fill:#bf00bf;stroke:#bf00bf;" x="223.573478" xlink:href="#m3e40e5e941" y="359.302148"/>
     <use style="fill:#bf00bf;stroke:#bf00bf;" x="331.78332" xlink:href="#m3e40e5e941" y="338.077379"/>
     <use style="fill:#bf00bf;stroke:#bf00bf;" x="357.636924" xlink:href="#m3e40e5e941" y="279.481949"/>
     <use style="fill:#bf00bf;stroke:#bf00bf;" x="470.016702" xlink:href="#m3e40e5e941" y="177.766073"/>
     <use style="fill:#bf00bf;stroke:#bf00bf;" x="490.240892" xlink:href="#m3e40e5e941" y="221.766348"/>
     <use style="fill:#bf00bf;stroke:#bf00bf;" x="443.954602" xlink:href="#m3e40e5e941" y="246.097002"/>
     <use style="fill:#bf00bf;stroke:#bf00bf;" x="276.740164" xlink:href="#m3e40e5e941" y="344.242066"/>
     <use style="fill:#bf00bf;stroke:#bf00bf;" x="330.115346" xlink:href="#m3e40e5e941" y="321.075199"/>
     <use style="fill:#bf00bf;stroke:#bf00bf;" x="453.545455" xlink:href="#m3e40e5e941" y="210.643427"/>
     <use style="fill:#bf00bf;stroke:#bf00bf;" x="395.166349" xlink:href="#m3e40e5e941" y="290.622525"/>
     <use style="fill:#bf00bf;stroke:#bf00bf;" x="524.017375" xlink:href="#m3e40e5e941" y="142.98929"/>
     <use style="fill:#bf00bf;stroke:#bf00bf;" x="393.289878" xlink:href="#m3e40e5e941" y="264.674928"/>
     <use style="fill:#bf00bf;stroke:#bf00bf;" x="457.715391" xlink:href="#m3e40e5e941" y="256.34745"/>
     <use style="fill:#bf00bf;stroke:#bf00bf;" x="429.776819" xlink:href="#m3e40e5e941" y="244.706636"/>
     <use style="fill:#bf00bf;stroke:#bf00bf;" x="535.901693" xlink:href="#m3e40e5e941" y="168.577893"/>
     <use style="fill:#bf00bf;stroke:#bf00bf;" x="422.896424" xlink:href="#m3e40e5e941" y="246.764965"/>
     <use style="fill:#bf00bf;stroke:#bf00bf;" x="577.392557" xlink:href="#m3e40e5e941" y="100.544164"/>
     <use style="fill:#bf00bf;stroke:#bf00bf;" x="404.548705" xlink:href="#m3e40e5e941" y="233.076122"/>
     <use style="fill:#bf00bf;stroke:#bf00bf;" x="402.880731" xlink:href="#m3e40e5e941" y="228.915325"/>
     <use style="fill:#bf00bf;stroke:#bf00bf;" x="383.282031" xlink:href="#m3e40e5e941" y="276.214223"/>
     <use style="fill:#bf00bf;stroke:#bf00bf;" x="313.644098" xlink:href="#m3e40e5e941" y="331.62579"/>
     <use style="fill:#bf00bf;stroke:#bf00bf;" x="479.607555" xlink:href="#m3e40e5e941" y="219.397577"/>
     <use style="fill:#bf00bf;stroke:#bf00bf;" x="378.278108" xlink:href="#m3e40e5e941" y="253.351912"/>
     <use style="fill:#bf00bf;stroke:#bf00bf;" x="258.809438" xlink:href="#m3e40e5e941" y="387.633228"/>
     <use style="fill:#bf00bf;stroke:#bf00bf;" x="419.351978" xlink:href="#m3e40e5e941" y="281.253377"/>
     <use style="fill:#bf00bf;stroke:#bf00bf;" x="409.969622" xlink:href="#m3e40e5e941" y="240.573794"/>
     <use style="fill:#bf00bf;stroke:#bf00bf;" x="246.091133" xlink:href="#m3e40e5e941" y="382.15416"/>
     <use style="fill:#bf00bf;stroke:#bf00bf;" x="177.078691" xlink:href="#m3e40e5e941" y="440.099281"/>
     <use style="fill:#bf00bf;stroke:#bf00bf;" x="373.065688" xlink:href="#m3e40e5e941" y="275.350578"/>
     <use style="fill:#bf00bf;stroke:#bf00bf;" x="253.388521" xlink:href="#m3e40e5e941" y="368.028344"/>
     <use style="fill:#bf00bf;stroke:#bf00bf;" x="249.218585" xlink:href="#m3e40e5e941" y="339.653126"/>
     <use style="fill:#bf00bf;stroke:#bf00bf;" x="527.56182" xlink:href="#m3e40e5e941" y="143.083452"/>
     <use style="fill:#bf00bf;stroke:#bf00bf;" x="451.043493" xlink:href="#m3e40e5e941" y="198.745138"/>
     <use style="fill:#bf00bf;stroke:#bf00bf;" x="422.687927" xlink:href="#m3e40e5e941" y="209.157428"/>
    </g>
   </g>
   <g id="patch_3">
    <path d="M 90 512.64 
L 90 69.12 
" style="fill:none;stroke:#000000;stroke-linecap:square;stroke-linejoin:miter;stroke-width:0.8;"/>
   </g>
   <g id="patch_4">
    <path d="M 648 512.64 
L 648 69.12 
" style="fill:none;stroke:#000000;stroke-linecap:square;stroke-linejoin:miter;stroke-width:0.8;"/>
   </g>
   <g id="patch_5">
    <path d="M 90 512.64 
L 648 512.64 
" style="fill:none;stroke:#000000;stroke-linecap:square;stroke-linejoin:miter;stroke-width:0.8;"/>
   </g>
   <g id="patch_6">
    <path d="M 90 69.12 
L 648 69.12 
" style="fill:none;stroke:#000000;stroke-linecap:square;stroke-linejoin:miter;stroke-width:0.8;"/>
   </g>
  </g>
 </g>
 <defs>
  <clipPath id="p8dc986829d">
   <rect height="443.52" width="558" x="90" y="69.12"/>
  </clipPath>
 </defs>
</svg>
